<?xml version="1.0" encoding="UTF-8" standalone="no"?>
<!-- Created with Inkscape (http://www.inkscape.org/) -->

<svg
   width="118.79929mm"
   height="131.79758mm"
   viewBox="0 0 118.79928 131.79758"
   version="1.1"
   id="svg1"
   xml:space="preserve"
   xmlns="http://www.w3.org/2000/svg"
   xmlns:svg="http://www.w3.org/2000/svg"><defs
     id="defs1" /><g
     id="layer1"
     transform="translate(-21.750185,-41.900809)"><path
       style="fill:#000000"
       d="M 21.750185,128.12658 V 82.554783 l 4.893649,4.88829 4.893649,4.88828 -2.399721,2.40974 c -2.054237,2.06282 -2.420428,2.56413 -2.543558,3.48213 -0.159043,1.18576 0.369511,2.373417 1.320595,2.967377 0.658981,0.41154 16.492273,2.72431 17.172557,2.5084 0.852166,-0.27047 2.01991,-1.43398 2.180782,-2.17288 0.128785,-0.59153 -1.586939,-13.745847 -2.120481,-16.257557 -0.08417,-0.39625 -0.489711,-1.08086 -0.9012,-1.52136 -0.629205,-0.67357 -0.947518,-0.80091 -2.001987,-0.80091 -1.227614,0 -1.307161,0.0524 -3.805175,2.50665 l -2.551349,2.50665 -7.068881,-7.07251 -7.06888,-7.07252 v -9.45705 -9.457054 h 8.134283 8.134284 l 7.739075,7.735744 7.739076,7.73574 -2.41609,2.42617 c -2.285656,2.2952 -2.422882,2.49688 -2.541932,3.73585 -0.111829,1.16383 -0.04011,1.40563 0.644029,2.17131 l 0.769872,0.86164 8.057556,1.17215 c 4.431656,0.64468 8.425468,1.10556 8.875137,1.02418 0.912467,-0.16514 1.791722,-0.97786 2.187062,-2.02155 0.19582,-0.51697 -0.02505,-2.68942 -0.876729,-8.62329 -0.626172,-4.36273 -1.271065,-8.17994 -1.433094,-8.48269 -0.530251,-0.99078 -1.629555,-1.64984 -2.751938,-1.64984 -0.984322,0 -1.245878,0.18291 -3.676476,2.57092 l -2.616762,2.57092 -5.613627,-5.613634 -5.613627,-5.61362 h 47.028909 47.028917 v 14.218514 14.21852 l -4.39762,4.40333 -4.39761,4.40333 -2.01853,-1.62363 c -6.44764,-5.18624 -14.33533,-8.86113 -22.78833,-10.61713 -4.04141,-0.83955 -11.520547,-1.1677 -15.829527,-0.69452 -11.923443,1.30934 -22.549149,6.28604 -31.091247,14.56203 -12.97359,12.569427 -18.63346,30.424857 -15.239964,48.078167 1.507557,7.84246 5.748436,17.10331 10.40485,22.72118 0.603081,0.72761 1.264158,1.53865 1.469062,1.80232 0.340036,0.43755 0.07445,0.77816 -3.043057,3.9026 l -3.415608,3.42321 H 35.975357 21.750185 Z M 90.294663,68.384903 c 0.35326,-0.18906 0.51178,-0.55496 0.51178,-1.18132 0,-1.0912 -0.53646,-1.45521 -2.14459,-1.45521 -1.81835,0 -2.68888,1.27957 -1.65086,2.42657 0.49363,0.54546 2.42593,0.66901 3.28367,0.20996 z m 21.678447,-1.18132 v -0.92604 h -5.42396 -5.42396 v -5.423964 -5.42396 h -0.92604 -0.926047 v 6.350004 6.35 h 6.349997 6.35001 z m 2.64583,-0.79375 v -1.71979 h 4.49792 4.49791 v 1.71979 1.71979 h 0.92604 0.92605 l -4.1e-4,-4.82864 c -4.6e-4,-5.316624 -0.18214,-6.097724 -1.67264,-7.191094 -0.67632,-0.49612 -1.11889,-0.54797 -4.67695,-0.54797 -3.55807,0 -4.00064,0.0519 -4.67696,0.54797 -1.4905,1.09337 -1.67218,1.87447 -1.67263,7.191094 l -4.1e-4,4.82864 h 0.92604 0.92604 z m 0,-5.832864 c 0,-1.76686 0.0747,-2.07107 0.64943,-2.64583 0.6179,-0.6179 0.80474,-0.64943 3.84849,-0.64943 3.04374,0 3.23058,0.0315 3.84848,0.64943 0.57476,0.57476 0.64943,0.87897 0.64943,2.64583 v 1.996404 h -4.49791 -4.49792 z m 23.15375,7.171704 c 1.82337,-0.76185 2.54519,-3.32172 1.44533,-5.12571 l -0.53436,-0.87645 0.53535,-0.68058 c 0.82067,-1.043324 0.73508,-2.977094 -0.1799,-4.064484 -1.1833,-1.40627 -1.92916,-1.57183 -7.08146,-1.57183 h -4.63871 v 6.350004 6.35 h 4.771 c 3.55372,0 5.00362,-0.0972 5.68275,-0.38095 z m -8.60167,-3.19092 v -1.71979 h 3.92775 c 3.46911,0 3.97887,0.0565 4.36562,0.48385 0.59396,0.65632 0.55154,1.78374 -0.0913,2.42656 -0.48051,0.48051 -0.88195,0.52917 -4.36563,0.52917 H 129.171 Z m 0,-5.423964 v -1.85208 h 3.55943 c 2.15671,0 3.8275,0.12214 4.23968,0.30994 1.22867,0.55982 1.22867,2.52446 0,3.08428 -0.41218,0.1878 -2.08297,0.309944 -4.23968,0.309944 h -3.55943 z m -43.577977,5.947514 c 1.93601,-1.65715 3.96763,-1.84203 5.77914,-0.52589 0.48921,0.35543 1.15736,0.84247 1.48478,1.08232 0.55174,0.40417 0.64373,0.40436 1.25677,0.003 2.18469,-1.43147 -1.4454,-4.871674 -5.17839,-4.907514 -1.72807,-0.0166 -3.46982,0.658174 -4.86188,1.883514 -1.41573,1.24618 -1.741323,2.12804 -1.06258,2.87804 0.67849,0.74972 1.34893,0.64245 2.58216,-0.41315 z m -3.329203,-3.58996 c 1.766773,-1.628554 3.769073,-2.455964 6.237613,-2.577574 2.59931,-0.12805 4.55336,0.54241 6.47168,2.220504 1.36504,1.19411 2.08913,1.42744 2.65956,0.85702 1.07663,-1.076634 -0.48778,-3.065384 -3.53188,-4.489884 -4.7307,-2.21377 -9.65425,-1.40089 -13.594083,2.24438 -1.09769,1.01562 -1.36647,1.903494 -0.75988,2.510084 0.5673,0.5673 1.32025,0.33859 2.51699,-0.76453 z M 60.562454,172.59702 c 1.224309,-1.22431 1.146136,-1.23508 3.124191,0.43041 l 0.79375,0.66832 -2.509651,0.001 -2.509651,0.001 z m 14.501276,-0.0384 c -2.698097,-1.4331 -3.998137,-2.26878 -6.578958,-4.22904 l -2.081039,-1.58065 8.626777,-8.62678 8.626783,-8.62678 7.88424,7.86815 7.88424,7.86815 h 1.242407 c 0.98363,0 1.4132,-0.1526 2.0624,-0.73266 0.77944,-0.69643 1.11314,-1.80524 6.74846,-22.42344 3.26066,-11.92992 5.92964,-21.74726 5.93106,-21.8163 0.001,-0.069 3.06845,2.92912 6.81561,6.66256 4.40577,4.38963 7.07072,6.85152 7.54236,6.96766 1.25039,0.30788 2.47594,-0.0895 3.35149,-1.08668 0.68315,-0.77807 0.81396,-1.14568 0.81396,-2.28743 V 129.155 l -7.46821,-7.49811 -7.46822,-7.49811 6.20986,-6.21408 c 3.41543,-3.41775 6.32964,-6.17535 6.47603,-6.12799 0.95605,0.30923 5.29285,6.97789 7.08541,10.89517 1.89161,4.1337 1.77972,2.93601 1.77972,19.05 0,16.07425 0.11442,14.83329 -1.75327,19.0152 -4.10949,9.2015 -12.11624,17.64255 -20.97813,22.11601 l -1.59518,0.80525 -19.520567,-0.008 -19.520573,-0.008 z m 55.43021,-0.0984 c 2.37349,-1.99835 6.23269,-6.04004 8.20887,-8.59704 l 1.8453,-2.38765 v 6.1114 6.1114 l -5.75469,-0.006 -5.75469,-0.006 z M 60.02667,159.83224 c -9.554152,-12.69384 -12.03875,-28.76693 -6.759585,-43.72837 3.319823,-9.40856 10.585606,-18.390087 19.08585,-23.592817 10.133525,-6.2024 22.133578,-8.31615 33.799335,-5.95359 6.72051,1.36105 15.268,5.42404 19.57917,9.30683 l 1.19062,1.07232 -6.27899,6.294587 -6.27899,6.2946 -7.47934,-7.43184 c -7.975877,-7.925237 -8.113937,-8.027567 -10.092937,-7.481137 -1.74428,0.48162 -2.81247,2.92916 -1.98865,4.5566 0.1609,0.31785 3.21283,3.511657 6.782057,7.097357 5.68369,5.7099 6.41908,6.54179 5.92229,6.69947 -0.31197,0.099 -10.120687,2.7851 -21.797157,5.96909 -20.083137,5.47635 -21.269253,5.83287 -21.957553,6.60002 -0.787788,0.87803 -0.966237,2.21788 -0.435169,3.26739 0.160839,0.31785 3.761752,4.06053 8.00203,8.31705 l 7.709599,7.73913 -8.463504,8.4666 c -4.654925,4.65663 -8.598601,8.4666 -8.763723,8.4666 -0.165122,0 -0.964031,-0.88195 -1.775353,-1.95989 z m 80.06465,-58.34754 c -0.17572,-0.28137 -1.08389,-1.45838 -2.01815,-2.615587 l -1.69865,-2.104 2.08679,-2.07456 2.0868,-2.07455 v 4.69014 c 0,2.57959 -0.0309,4.690147 -0.0686,4.690147 -0.0378,0 -0.21242,-0.23021 -0.38814,-0.51159 z M 78.45714,53.191479 c -0.85793,-0.37318 -1.4794,-1.13216 -1.79619,-2.19363 -0.27995,-0.93801 1.03664,-0.80571 1.97465,0.19844 0.73685,0.7888 0.75961,0.79375 3.64872,0.79375 3.301383,0 4.090353,-0.33172 4.090353,-1.71979 0,-1.40569 -0.77551,-1.71928 -4.262653,-1.72369 -1.9309,-0.002 -3.3233,-0.12725 -3.73306,-0.33459 -0.84459,-0.42737 -1.86002,-1.93931 -1.86002,-2.76951 0,-1.05374 0.80455,-2.43939 1.68932,-2.90946 1.03922,-0.55214 5.649163,-0.77882 7.222523,-0.35516 1.959,0.52751 3.46049,3.19762 1.79811,3.19762 -0.4555,0 -0.76309,-0.21061 -0.96962,-0.6639 -0.42363,-0.92976 -1.77868,-1.262 -4.690633,-1.15009 -2.19672,0.0844 -2.50341,0.15899 -2.95658,0.71882 -0.60173,0.74335 -0.64,1.33906 -0.13083,2.03678 0.33013,0.45239 0.80557,0.52936 3.98948,0.64589 l 3.614693,0.13229 0.90531,0.9883 c 1.10736,1.20887 1.26226,2.44731 0.49244,3.93696 -0.6188,1.19742 -1.82803,1.55825 -5.183373,1.54667 -1.95075,-0.007 -3.29698,-0.13835 -3.84264,-0.3757 z m 11.087373,-5.36863 0.0713,-5.75469 h 5.68854 5.688537 l 0.0832,0.72171 0.0831,0.7217 -4.977937,0.072 -4.97795,0.072 -0.0788,1.65365 -0.0788,1.65365 h 4.11367 4.11367 v 0.79375 0.79375 h -4.10104 -4.10104 v 1.71979 1.71979 h 5.02708 5.027077 v 0.79375 0.79375 h -5.825987 -5.82599 z m 12.903587,-0.0661 v -5.82083 h 0.76381 c 0.64563,0 1.39274,0.67101 4.82865,4.33682 l 4.06484,4.33681 0.13229,-4.27067 0.13229,-4.27067 0.72761,-0.0837 0.7276,-0.0837 v 5.83841 5.83841 h -0.74688 c -0.62644,0 -1.4051,-0.7116 -4.82865,-4.41279 l -4.08176,-4.41278 -0.0725,4.41278 -0.0725,4.41279 h -0.78736 -0.78735 z m 14.93637,5.45955 c -0.84765,-0.38042 -1.51797,-1.21996 -1.77123,-2.2184 -0.13455,-0.53041 -0.0528,-0.59531 0.75026,-0.59531 0.60901,0 0.90127,0.12383 0.90127,0.38187 0,0.88171 1.08535,1.20563 4.03965,1.20563 2.68756,0 2.90349,-0.0399 3.513,-0.64944 0.35719,-0.35718 0.64944,-0.83885 0.64944,-1.07036 0,-0.23151 -0.29225,-0.71317 -0.64944,-1.07036 -0.61674,-0.61674 -0.80789,-0.64943 -3.79733,-0.64943 -2.84089,0 -3.23558,-0.059 -4.04692,-0.60498 -1.74383,-1.17349 -1.85727,-3.68007 -0.22857,-5.05053 0.96661,-0.81334 2.45055,-1.058 5.52545,-0.91099 2.96676,0.14184 4.0437,0.79051 4.64229,2.79619 0.15567,0.52158 0.0824,0.59531 -0.59143,0.59531 -0.56527,0 -0.84964,-0.17672 -1.07292,-0.66677 -0.42241,-0.9271 -1.29693,-1.18531 -4.01447,-1.18531 -2.76643,0 -3.61639,0.26385 -3.98658,1.23754 -0.22066,0.58038 -0.17651,0.84732 0.23052,1.3938 0.48398,0.64981 0.6354,0.68107 3.91569,0.80824 3.01528,0.1169 3.51151,0.2031 4.2655,0.7409 1.72986,1.23385 1.72378,3.8861 -0.0119,5.18381 -0.65308,0.48828 -1.16275,0.56584 -4.10086,0.62403 -2.3929,0.0474 -3.58636,-0.0373 -4.16145,-0.29544 z m 11.25739,-5.45955 v -5.82083 h 5.68854 5.68854 v 0.78791 0.78792 l -4.96094,0.072 -4.96094,0.072 -0.0788,1.65365 -0.0788,1.65365 h 4.24596 4.24596 v 0.78703 0.78703 l -4.16719,0.0729 -4.16719,0.0729 v 1.5875 1.5875 l 4.96094,0.072 4.96094,0.072 v 0.78791 0.78791 h -5.68854 -5.68854 z"
       id="path1" /></g><path
     style="fill:#ffffff;stroke-width:0.163724"
     d="m 105.68365,19.881189 v -6.232741 l 4.70705,0.05509 c 5.32422,0.06232 5.64818,0.125752 6.65612,1.303302 1.06989,1.249927 1.16792,2.894442 0.2494,4.184069 l -0.49154,0.690138 0.40319,0.619652 c 1.08299,1.664412 0.81872,3.777543 -0.60857,4.866194 -0.8237,0.628262 -1.87292,0.747031 -6.59932,0.747031 h -4.31633 z m 9.08666,4.436445 c 0.90241,-0.20841 1.39165,-0.814403 1.39165,-1.723764 0,-0.523266 -0.10729,-0.843318 -0.39487,-1.177867 l -0.39487,-0.45937 -4.02567,-0.05147 -4.02567,-0.05147 v 1.811502 1.811501 l 3.39727,-0.0039 c 1.8685,-0.0021 3.69197,-0.07197 4.05216,-0.155152 z m -1.88282,-5.225145 c 1.38482,-0.07884 2.34349,-0.209534 2.56699,-0.34995 0.79167,-0.497362 0.96784,-1.967365 0.3253,-2.714359 -0.50374,-0.585632 -1.30772,-0.692894 -5.30722,-0.708062 l -3.15168,-0.01195 v 1.964685 1.964684 l 1.67817,-0.0096 c 0.92299,-0.0053 2.67279,-0.06623 3.88844,-0.135442 z"
     id="path2" /><path
     style="fill:#ffffff;stroke-width:0.163724"
     d="m 91.144464,21.325011 c 0.07167,-5.281329 0.120562,-5.562769 1.151262,-6.627725 0.82322,-0.850578 1.30578,-0.937682 5.214581,-0.941261 l 3.532913,-0.0032 0.7968,0.492632 c 0.56557,0.34967 0.91819,0.728334 1.21508,1.30483 0.41694,0.809597 0.41844,0.827808 0.47015,5.687937 l 0.0519,4.87574 h -0.82957 -0.82956 v -1.719097 -1.719099 h -4.584263 -4.584263 v 1.719099 1.719098 h -0.835002 -0.835001 z m 10.773286,-2.455855 c -2.7e-4,-2.147631 -0.23311,-2.814258 -1.14582,-3.280987 -0.50144,-0.256423 -0.955219,-0.287102 -3.63245,-0.245585 l -3.059422,0.04744 -0.502605,0.481863 c -0.65473,0.627713 -0.825955,1.299067 -0.827067,3.24285 l -7.93e-4,1.596307 h 4.584263 4.584264 z"
     id="path3" /><path
     style="fill:#ffffff;stroke-width:0.163724"
     d="m 77.523169,19.892429 v -6.2215 h 0.90048 0.90048 v 5.402882 5.402881 h 5.402882 5.402881 v 0.818619 0.818618 h -6.303361 -6.303362 z"
     id="path4" /></svg>
